<svg xmlns="http://www.w3.org/2000/svg" viewBox="0 0 266 300">
  <defs/>
  <path fill="#FFF" fill-rule="nonzero" d="M133.054 299.411c-13.63 0-24.722-10.863-25.09-24.403l-70.626-40.775a24.968 24.968 0 01-11.558 3.024l-.389.002c-8.664-.01-17.087-4.51-21.731-12.554-6.815-11.803-2.953-26.841 8.59-33.93v-81.55C.707 102.136-3.155 87.098 3.66 75.295c4.574-7.924 12.816-12.41 21.344-12.551l.387-.003c4.05-.005 8.153.971 11.947 3.026l70.625-40.775C108.33 11.59 119.2.81 132.64.592l.415-.003c13.629 0 24.72 10.863 25.09 24.403l70.624 40.775a24.968 24.968 0 0111.56-3.024l.388-.002c8.664.01 17.088 4.51 21.731 12.554 6.815 11.803 2.953 26.84-8.588 33.93v81.55c11.541 7.09 15.403 22.127 8.588 33.93-4.574 7.924-12.816 12.41-21.343 12.551l-.388.003a24.968 24.968 0 01-11.947-3.026l-70.625 40.775c-.365 13.402-11.237 24.182-24.675 24.4l-.415.003zm0-261.77l.327-.005h.045-.045c.106-.002.211-.007.316-.012l-.271.011c.112-.003.224-.008.336-.015l-.065.004c.106-.006.211-.013.316-.021l-.251.017c.144-.008.287-.02.43-.033l-.179.016c.089-.007.176-.015.264-.024l-.086.008c.101-.01.202-.02.302-.032l-.216.024a12 12 0 00.333-.039l-.117.015c.089-.01.177-.022.265-.035l-.148.02c.117-.015.233-.032.349-.05l-.201.03c.103-.015.206-.03.309-.048l-.108.018c.1-.016.2-.034.299-.052l-.191.034c.1-.017.2-.035.3-.055l-.11.02c.091-.016.182-.034.272-.053l-.162.033a11.869 11.869 0 001.203-.301l-.092.027.221-.068-.13.04c.093-.028.185-.057.277-.088l-.147.048c.114-.037.228-.075.341-.115l-.194.067c.093-.03.185-.063.277-.096l-.083.029c4.641-1.642 7.966-6.068 7.966-11.271 0-6.601-5.351-11.953-11.952-11.953S121.1 19.088 121.1 25.69c0 4.865 2.907 9.051 7.079 10.916.014.008.03.015.044.021l-.044-.02a11.873 11.873 0 00.887.355l-.083-.03c.092.032.185.065.278.096l-.195-.066c.113.04.227.078.341.114l-.146-.048c.091.03.184.06.276.088l-.13-.04.201.062-.07-.022a11.865 11.865 0 001.202.302l-.163-.033c.09.02.18.037.271.054l-.108-.02.3.054-.192-.034c.1.018.2.036.3.052l-.108-.018c.102.017.205.033.308.048l-.2-.03c.116.018.233.035.351.05l-.15-.02c.086.012.173.024.26.034l-.11-.013c.11.014.219.027.329.038l-.22-.025c.106.013.212.024.319.034l-.099-.01c.087.01.174.018.26.025l-.161-.015c.137.013.275.024.413.032l-.251-.017c.107.008.214.015.322.02l-.071-.003c.113.006.226.012.339.015l-.268-.011c.212.011.426.017.642.017zm38.853 82.029L216.371 94a24.903 24.903 0 01-.73-4.81l.004.059a25.02 25.02 0 01.267-5.284 25.236 25.236 0 013.058-8.672L154.794 38.24l-.132.226a24.203 24.203 0 01-.773 1.223 25.197 25.197 0 01-13.595 10.04 24.896 24.896 0 01-.498.143V98.21c13.733 1.697 25.526 9.88 32.111 21.46zm-75.421 1.02a43.059 43.059 0 0130.163-22.093V49.964a25.063 25.063 0 01-3.856-1.362 24.928 24.928 0 01-2.778-1.462l-.07-.043a22.882 22.882 0 01-.974-.629l-.08-.055a25.305 25.305 0 01-1.943-1.473l-.074-.062a25.24 25.24 0 01-3.895-4.121l-.097-.13c-.06-.08-.118-.16-.176-.24l-.058-.08a25.049 25.049 0 01-1.335-2.067L47.137 75.292a25.086 25.086 0 011.526 3.133l.01.025a25.242 25.242 0 011.766 11.177l-.012.154a24.951 24.951 0 01-.403 2.944l.002-.011a24.9 24.9 0 01-.224 1.023zm150.2-22.495c5.717-3.3 7.676-10.61 4.375-16.327-3.3-5.716-10.61-7.675-16.327-4.375-4.503 2.6-6.674 7.688-5.78 12.525l.029.152-.029-.152c.019.1.038.199.06.298l-.031-.146c.022.114.047.227.073.34l-.043-.194c.022.102.045.204.07.305l-.027-.11c.023.103.049.205.075.308l-.049-.198c.026.11.054.22.084.33l-.035-.132c.028.108.057.216.088.324l-.053-.192c.027.1.055.2.085.3l-.032-.108a11.932 11.932 0 00.414 1.194l-.07-.179c.044.117.091.232.14.348l-.07-.169.106.252-.036-.083c.048.112.098.224.15.335l-.114-.252c.048.11.098.221.15.332l-.037-.08c.048.104.097.207.148.31l-.11-.23c.045.097.092.193.14.29l-.03-.06a12.114 12.114 0 00.994 1.655l-.116-.165c.06.086.12.171.181.255l-.065-.09c.067.093.134.185.203.276l-.138-.186c.058.08.117.159.177.237l-.039-.051c.055.072.11.143.166.213l-.127-.162c.075.097.15.193.228.287l-.101-.125c.063.08.127.158.192.235l-.091-.11c.074.092.15.182.227.27l-.136-.16c.065.078.13.155.198.23l-.062-.07c.076.088.153.174.231.259l-.17-.188c.073.082.146.162.22.241l-.05-.053c.133.144.268.284.407.42 3.735 3.677 9.598 4.574 14.358 1.826zM33.016 97.058l.212-.179a11.9 11.9 0 00.072-.063l-.072.063a11.86 11.86 0 001.107-1.095l-.082.091c.066-.072.13-.146.194-.22l-.112.129a11.949 11.949 0 00.51-.617l-.07.09c.057-.071.112-.143.167-.216l-.096.126c.067-.087.133-.175.198-.264l-.102.138a12.069 12.069 0 001.194-1.947l-.078.156c.054-.105.105-.21.155-.317l-.077.16c.052-.106.102-.212.151-.32l-.074.16c.047-.098.092-.197.135-.296l-.061.137c.041-.091.082-.183.12-.275l-.059.138c.053-.121.104-.243.153-.365l-.093.227c.042-.1.083-.201.123-.302l-.03.075c.034-.083.066-.167.098-.252l-.068.177c.044-.111.085-.222.125-.333l.105-.305a11.917 11.917 0 00.128-.417l-.032.108c.03-.099.058-.198.085-.298l-.053.19c.03-.107.06-.216.088-.324l-.035.134c.03-.11.058-.22.084-.33l-.049.196c.027-.102.052-.205.075-.308l-.026.112c.025-.102.048-.203.07-.305l-.044.193c.026-.113.05-.227.073-.34l-.03.147.06-.3-.03.152c.968-4.882-1.201-10.049-5.751-12.676-5.717-3.3-13.027-1.341-16.327 4.375-3.3 5.717-1.342 13.027 4.375 16.327 4.446 2.567 9.856 1.953 13.594-1.137zm9.881 97.095l28.474-16.438a34.517 34.517 0 01-7.743-21.838c0-12.457 6.571-23.379 16.436-29.489l-36.589-21.123a24.903 24.903 0 01-4.423 3.647l-.013.008a25.007 25.007 0 01-2.202 1.269l-.016.008a25.155 25.155 0 01-2.307 1.034l-.02.007a25.301 25.301 0 01-2.39.794l-.024.006a25.239 25.239 0 01-4.135.778l-.03.003a25.196 25.196 0 01-2.517.13l.056-.001h-.056v74.104a25.092 25.092 0 014.277.37 25.248 25.248 0 019.492 3.742 24.979 24.979 0 013.73 2.99zm180.772-.433l.216-.198c.247-.223.498-.44.753-.653l.008-.007a24.925 24.925 0 015.238-3.353 25.18 25.18 0 017.585-2.244 25.186 25.186 0 013.242-.213l-.055.001.05-.001h.005v-74.104a25.091 25.091 0 01-6.105-.758 25.252 25.252 0 01-6.07-2.392l.096.052a25.077 25.077 0 01-1.216-.71l-.359-.229a25.01 25.01 0 01-4.236-3.454l-45.295 26.15c14.421 1.813 25.612 14.006 25.853 28.86l.004.49c0 6.749-2.26 12.97-6.065 17.948l26.088 15.061c.087-.083.175-.165.263-.246zm-92.16-16.329H173.8c9.076 0 16.434-7.358 16.434-16.434 0-9.077-7.358-16.434-16.434-16.434h-9.055l-.486-6.047c-1.242-15.445-14.186-27.445-29.783-27.445-12.46 0-23.477 7.696-27.888 19.126l-1.624 4.206h-6.676c-11.881 0-21.513 9.632-21.513 21.514s9.632 21.514 21.513 21.514h32.134c.146 0 .289-.001.428-.004l.141-.003.329.006.187.001zm-20.195 84.368l.132-.225a25.096 25.096 0 013.974-5.084 25.253 25.253 0 016.515-4.647 25.065 25.065 0 014.715-1.767l.001-59.497H98.288a34.511 34.511 0 01-16.036-3.925l-32.657 18.854a24.902 24.902 0 01.555 2.492l-.007-.043a24.923 24.923 0 01.284 2.302l.012.154A25.083 25.083 0 0150.5 212l-.001-.16a25.084 25.084 0 01-.792 6.561 25.25 25.25 0 01-.95 2.937l.029-.073a25.21 25.21 0 01-1.649 3.442l64.176 37.051zm43.481 0l64.176-37.051a25.087 25.087 0 01-1.649-3.442l.03.073a25.222 25.222 0 01-1.494-5.67l.035.242a25.188 25.188 0 01-.249-5.134 24.968 24.968 0 01.933-5.535l-.042.146.05-.177-30.237-17.457a29.469 29.469 0 01-12.547 2.785h-34.003v59.589a24.93 24.93 0 012.584.874l.08.033a24.96 24.96 0 016.032 3.486l.046.036a25.24 25.24 0 012.768 2.526l.031.034a25.244 25.244 0 011.742 2.061l.103.138a25.112 25.112 0 011.611 2.444zM31.373 222.508c4.503-2.6 6.674-7.688 5.78-12.525l-.028-.149.028.15c-.018-.1-.038-.2-.06-.3l.032.15c-.02-.105-.043-.21-.067-.316l.036.167a11.86 11.86 0 00-.069-.305l.033.138c-.024-.105-.05-.21-.076-.314l.043.176c-.025-.105-.052-.21-.08-.315l.037.14c-.03-.116-.061-.232-.094-.347l.057.207c-.028-.105-.058-.21-.089-.314l.032.107a11.918 11.918 0 00-.353-1.04l.103.272c-.044-.12-.09-.242-.138-.362l.035.09a11.976 11.976 0 00-.113-.279l.078.189a11.96 11.96 0 00-.157-.373l.08.184c-.045-.104-.09-.208-.137-.312l.057.128a12.006 12.006 0 00-.13-.287l.073.159a12.036 12.036 0 00-.151-.32l.077.161c-.044-.095-.09-.19-.139-.285l.062.124a12.074 12.074 0 00-.141-.279l.08.155c-.05-.097-.1-.195-.153-.292l-.173-.31a12.08 12.08 0 00-.807-1.221l.107.145a11.99 11.99 0 00-.203-.27l.096.125c-.055-.073-.11-.145-.166-.216l.07.09a11.955 11.955 0 00-.49-.593l.065.075c-.06-.07-.122-.14-.184-.208l.12.133a11.875 11.875 0 00-1.129-1.12l.072.064a11.864 11.864 0 00-.532-.443l.043.035c-3.729-2.945-9.024-3.492-13.39-.971-5.716 3.3-7.675 10.61-4.374 16.327 3.3 5.716 10.61 7.675 16.327 4.375zm219.688-4.375c3.3-5.717 1.342-13.027-4.374-16.327-4.76-2.748-10.623-1.85-14.358 1.826a11.61 11.61 0 00-.44.457l.082-.09c-.074.08-.147.16-.219.242l.137-.152c-.072.078-.142.157-.212.238l.075-.086c-.066.075-.132.152-.197.23l.122-.144c-.072.083-.143.168-.214.254l.092-.11c-.065.077-.13.156-.192.235l.1-.125c-.077.094-.152.19-.227.287l.127-.162c-.06.075-.118.15-.176.227l.05-.065c-.06.078-.12.157-.178.237l.128-.172c-.077.102-.153.205-.227.31l.099-.138c-.061.084-.122.17-.181.255l.082-.117a12.09 12.09 0 00-.814 1.324l.04-.076-.156.3.116-.224c-.054.1-.105.202-.156.303l.04-.08c-.048.097-.095.193-.14.29l.1-.21-.15.314.05-.104c-.05.106-.099.213-.146.32l.097-.216c-.055.12-.108.24-.159.362l.062-.146c-.034.08-.068.16-.1.24l.038-.094a11.93 11.93 0 00-.463 1.313l.032-.108c-.031.104-.06.208-.089.313l.057-.205c-.033.115-.064.23-.094.346l.037-.14a11.9 11.9 0 00-.08.314l.043-.174c-.026.104-.052.209-.075.314l.032-.14c-.024.102-.047.203-.069.305l.037-.165c-.024.105-.046.21-.067.316l.03-.15c-.021.099-.04.198-.06.298l.03-.148c-.967 4.88 1.202 10.046 5.751 12.673 5.717 3.3 13.027 1.341 16.327-4.375zm-118.007 68.132c6.6 0 11.952-5.352 11.952-11.953 0-5.172-3.285-9.577-7.883-11.241a2.875 2.875 0 00-.083-.03l.083.03a11.86 11.86 0 00-.277-.097l.194.066c-.113-.04-.227-.078-.341-.114l.147.048c-.092-.03-.184-.06-.276-.088l.129.04a11.894 11.894 0 00-.22-.068l.091.028a11.865 11.865 0 00-1.204-.302l.163.033c-.09-.02-.18-.037-.271-.054l.108.02-.3-.054.192.034a11.91 11.91 0 00-.3-.052l.108.018a11.961 11.961 0 00-.308-.048l.2.03a11.939 11.939 0 00-.348-.05l.148.02a11.983 11.983 0 00-.265-.035l.117.015c-.11-.015-.22-.028-.332-.039l.215.024a12.006 12.006 0 00-.28-.03l.065.006-.3-.027.234.02a12.038 12.038 0 00-.357-.028l.122.008c-.095-.007-.19-.013-.287-.018l.165.01c-.142-.01-.286-.017-.43-.021l.265.01c-.21-.01-.423-.016-.636-.016l-.328.005h-.046.046a12.1 12.1 0 00-.308.012l.262-.011c-.146.004-.29.011-.434.021l.172-.01a12.06 12.06 0 00-.288.018l.116-.008a12.03 12.03 0 00-.351.029l.235-.02c-.1.007-.201.016-.301.026l.066-.006c-.096.009-.19.02-.286.03l.22-.024c-.11.011-.22.024-.329.038l.11-.013c-.088.01-.174.021-.26.034l.15-.02a11.97 11.97 0 00-.351.05l.2-.03c-.103.015-.206.03-.309.048l.109-.018c-.1.016-.2.034-.3.052l.191-.034c-.1.017-.2.035-.3.055l.11-.02c-.091.016-.181.034-.272.053l.163-.033a11.868 11.868 0 00-1.203.301l.071-.021-.2.062.13-.04c-.093.028-.186.057-.277.088l.146-.048c-.114.037-.228.075-.34.115l.194-.067c-.093.03-.186.063-.278.096l.083-.029a11.871 11.871 0 00-.888.354l.046-.02c-4.196 1.856-7.124 6.055-7.124 10.937 0 6.601 5.352 11.953 11.953 11.953z"/>
</svg>
