<svg xmlns="http://www.w3.org/2000/svg" fill-rule="evenodd" stroke-linejoin="round" stroke-miterlimit="2" clip-rule="evenodd" viewBox="0 0 2242 298">
  <defs/>
  <path fill="#606470" fill-rule="nonzero" d="M1209.803 24.906a1.5 1.5 0 011.493 1.356l.007.144V278.24a1.5 1.5 0 01-2.993.145l-.007-.145V26.406a1.5 1.5 0 011.5-1.5z"/>
  <path fill="#276cff" fill-rule="nonzero" d="M132.511 297.385c-13.544 0-24.568-10.796-24.933-24.253l-70.185-40.519a24.812 24.812 0 01-11.487 3.005l-.385.003c-8.611-.01-16.982-4.483-21.596-12.476-6.773-11.73-2.935-26.674 8.535-33.719v-81.041C.99 101.34-2.848 86.396 3.925 74.666c4.545-7.874 12.736-12.332 21.21-12.472l.386-.004a24.82 24.82 0 0111.872 3.008l70.185-40.52C107.94 11.359 118.744.646 132.099.43l.412-.004c13.545 0 24.568 10.796 24.934 24.252l70.183 40.521a24.814 24.814 0 0111.488-3.006l.386-.003c8.61.01 16.981 4.483 21.596 12.476 6.772 11.73 2.934 26.674-8.536 33.719v81.041c11.47 7.045 15.308 21.989 8.536 33.719-4.546 7.874-12.737 12.332-21.211 12.472l-.385.004a24.815 24.815 0 01-11.872-3.008l-70.185 40.52c-.363 13.319-11.166 24.032-24.521 24.248l-.413.004zm0-260.138l.323-.004.081-.003-.08.003c.107-.003.215-.008.322-.013l-.242.01c.118-.004.236-.009.352-.017l-.11.007c.11-.006.219-.014.327-.022l-.217.015c.108-.006.214-.015.321-.024l-.104.009c.097-.008.193-.017.289-.027l-.185.018c.117-.011.233-.023.349-.037l-.164.019.324-.039-.16.02c.099-.012.197-.025.295-.039l-.135.019c.121-.016.243-.034.363-.054l-.228.035c.099-.014.197-.03.296-.046l-.068.011c.103-.017.205-.035.307-.055l-.239.044c.108-.019.215-.039.322-.06l-.083.016c.131-.025.261-.053.391-.082l-.308.066c.247-.05.492-.107.733-.171l.182-.05-.182.05c.099-.027.198-.054.297-.083l-.115.033.264-.078-.149.045c4.919-1.453 8.509-6.004 8.509-11.394 0-6.56-5.318-11.877-11.878-11.877-6.56 0-11.877 5.317-11.877 11.877 0 5.331 3.512 9.842 8.348 11.345l.183.055-.183-.055.273.081-.09-.026c.097.029.195.056.293.082l-.203-.056c.105.03.211.059.318.086l-.115-.03a11.157 11.157 0 00.82.186l-.113-.022c.11.022.221.043.333.062l-.22-.04c.091.018.183.034.275.049l-.055-.009c.099.017.199.033.299.047l-.244-.038c.123.021.246.039.369.056l-.125-.018c.096.014.192.027.288.038l-.163-.02c.109.014.218.027.328.039l-.165-.019c.116.014.233.026.35.037l-.185-.018.288.027-.103-.009c.106.009.213.018.32.024l-.217-.015c.109.008.218.016.327.022l-.11-.007c.117.008.234.013.352.017l-.242-.01c.214.011.43.017.646.017zm38.612 81.517l44.186-25.51c-.032-.124-.062-.249-.092-.373a20.857 20.857 0 01-.085-.372l-.041-.188-.045-.219a25.013 25.013 0 01-.165-.896l-.028-.17a25.06 25.06 0 01-.202-1.629l-.016-.184c-.019-.23-.035-.46-.048-.69l-.003-.059.003.059-.017-.356-.008-.216-.006-.236-.004-.181-.002-.179v-.164.164a25.032 25.032 0 01.391-4.609l.052-.282c.038-.2.079-.399.122-.597l.047-.215.035-.154.034-.145.067-.274a25.7 25.7 0 01.391-1.393l.062-.195.052-.16.062-.186.086-.251.043-.123.089-.244.019-.052a28.947 28.947 0 01.41-1.04 22.623 22.623 0 01.339-.768l.057-.123.124-.261a10.102 10.102 0 01.169-.344c.036-.072.071-.143.108-.213l.068-.133.115-.218.066-.122a20.7 20.7 0 01.334-.599l-63.776-36.821-.038.065a28.1 28.1 0 01-.424.702l-.142.223-.093.144-.117.178a9.157 9.157 0 01-.109.162l-.071.105a25.232 25.232 0 01-1.973 2.525l-.177.196-.099.109-.103.111a25.11 25.11 0 01-1.867 1.807l-.044.039c-.16.138-.321.275-.484.41l-.079.064c-.06.05-.122.1-.184.149l-.167.133a25.072 25.072 0 01-.703.535l-.037.027-.188.136c-.151.108-.302.214-.455.318l-.063.043a24.43 24.43 0 01-1.992 1.22l-.223.121a8.423 8.423 0 01-.132.07l-.153.08c-.087.046-.175.09-.262.135l-.107.053a22.728 22.728 0 01-1.383.638 24.43 24.43 0 01-1.219.479l-.141.051a22.22 22.22 0 01-.275.097l-.067.023a27.23 27.23 0 01-.305.101l-.115.037-.309.097-.07.021-.257.076-.222.064-.055.015.001 48.036c13.646 1.687 25.366 9.818 31.91 21.326zm-74.951 1.013a42.788 42.788 0 0129.975-21.954v-48.33a30.06 30.06 0 01-.429-.117l-.189-.054a24.99 24.99 0 01-1.427-.463l-.124-.045c-.093-.033-.184-.067-.275-.101l-.097-.037-.26-.101-.132-.053-.296-.121-.082-.035a23.71 23.71 0 01-1.343-.613c-.106-.052-.212-.106-.317-.159l-.189-.098-.078-.041a42.73 42.73 0 01-.297-.158l-.106-.058-.18-.1c-.19-.107-.379-.216-.566-.328l-.121-.072-.233-.143-.144-.09-.144-.09-.164-.106a22.627 22.627 0 01-.704-.474 24.608 24.608 0 01-1.082-.799l-.046-.037a24.857 24.857 0 01-1.066-.885l-.122-.108a24.94 24.94 0 01-1.459-1.409l-.12-.126a26.47 26.47 0 01-.531-.581l-.011-.013a25.75 25.75 0 01-1.017-1.227l-.118-.154a22.54 22.54 0 01-.123-.161l-.089-.121a10.883 10.883 0 01-.159-.216l-.096-.133-.123-.174-.105-.15a74.09 74.09 0 01-.136-.199l-.094-.14c-.268-.4-.523-.808-.767-1.224l-.079-.136-63.776 36.821a25.703 25.703 0 01.514.939l.094.181.054.107c.11.219.218.44.322.663l.057.123c.036.08.073.159.108.239l.05.112.109.25a24.453 24.453 0 01.787 2.082l.041.129a24.166 24.166 0 01.673 2.538l.059.292.027.135a28.065 28.065 0 01.236 1.469 24.771 24.771 0 01.158 1.607l.013.216.009.167a23.714 23.714 0 01.028 1.632l-.002.132c-.005.239-.014.478-.026.718l-.013.255-.012.174-.009.141c-.02.275-.045.55-.074.825l-.002.013.002-.013a24.5 24.5 0 01-.555 3.203l46.393 26.784zm149.264-22.353c5.681-3.28 7.627-10.544 4.347-16.225-3.28-5.681-10.544-7.628-16.225-4.348-4.478 2.585-6.636 7.646-5.742 12.456l.026.141-.026-.141c.016.089.034.178.052.267l-.026-.126c.023.114.047.228.073.342l-.047-.216c.026.12.053.24.082.359l-.035-.143c.022.094.045.187.069.281l-.034-.138c.024.102.05.204.078.306l-.044-.168c.028.111.058.222.09.332l-.046-.164c.026.094.053.189.081.283l-.035-.119a11.516 11.516 0 00.408 1.182l-.057-.144c.042.108.086.216.131.323l-.074-.179c.04.099.081.197.124.295l-.05-.116c.038.091.078.181.119.27l-.069-.154c.05.116.103.231.158.347l-.089-.193c.043.096.088.192.135.287l-.046-.094c.045.094.091.189.139.283l-.093-.189c.056.116.114.232.175.347l-.082-.158c.069.135.14.269.215.403l.092.163a12.194 12.194 0 00.597.932l-.079-.113c.128.185.26.365.396.54l.072.092-.072-.092c.056.072.112.143.169.213l-.097-.121c.077.097.155.193.234.287l-.137-.166c.064.079.13.158.196.235l-.059-.069.181.209-.122-.14a12.043 12.043 0 001.226 1.233l.198.167-.198-.167c.078.068.157.135.237.2l-.039-.033c3.715 3.08 9.099 3.695 13.523 1.141zM33.759 95.702l.096-.092c.121-.12.24-.242.357-.367l.047-.051-.047.051c.073-.079.145-.158.216-.239l-.169.188c.078-.085.154-.17.23-.257l-.061.069c.074-.083.146-.168.218-.254l-.157.185c.064-.074.128-.15.191-.226l-.034.041c.061-.073.12-.147.179-.221l-.145.18c.082-.1.164-.202.244-.306l-.099.126c.067-.085.133-.17.198-.257l-.099.131c.06-.078.119-.157.178-.237l-.079.106c.063-.084.125-.169.186-.255l-.107.149c.066-.09.131-.182.195-.275l-.088.126c.214-.302.415-.616.603-.941.032-.054.062-.109.093-.163l-.093.163c.14-.242.27-.486.391-.733l.087-.182-.087.182c.034-.07.068-.141.1-.211l-.013.029a16.238 16.238 0 00.173-.389l-.038.088c.191-.44.355-.887.49-1.341l.024-.084-.024.084c.03-.102.059-.205.087-.308l-.063.224a12.3 12.3 0 00.091-.329l-.028.105c.026-.098.052-.196.075-.294l-.047.189a12.054 12.054 0 00.17-.758l-.019.092c.959-4.849-1.197-9.98-5.716-12.589-5.681-3.28-12.946-1.333-16.225 4.348-3.28 5.681-1.334 12.945 4.347 16.225 4.689 2.707 10.457 1.854 14.172-1.722zm9.158 97.082l28.295-16.337a34.3 34.3 0 01-7.694-21.701c0-12.379 6.53-23.233 16.333-29.305l-36.36-20.992a23.868 23.868 0 01-1.244 1.206 24.774 24.774 0 01-4.978 3.492l-.016.008a25.873 25.873 0 01-2.804 1.276 25.637 25.637 0 01-3.712 1.099c-.201.043-.402.084-.603.122l-.122.022a21.743 21.743 0 01-1.256.198 24.232 24.232 0 01-1.561.155 23.324 23.324 0 01-1.278.054l-.386.004h-.005v73.641h.005c.771.001 1.541.038 2.306.11.136.013.273.026.409.042a22.71 22.71 0 011.582.226c.288.05.575.106.861.167.23.048.459.1.686.155l.412.103a25.177 25.177 0 013.856 1.344l.179.08a24.794 24.794 0 013.912 2.213l.213.148a24.774 24.774 0 012.97 2.47zm179.384-.185l.133-.128a24.846 24.846 0 013.852-2.961l.013-.008c.191-.118.382-.234.575-.347l.137-.08-.137.08a25.017 25.017 0 017.136-2.814l.23-.051a30.828 30.828 0 011.05-.203l-.332.059a30.312 30.312 0 011.181-.19 24.666 24.666 0 011.688-.172c.224-.015.447-.028.671-.037l.174-.006.077-.003c.249-.007.498-.011.747-.012l-.053.002.048-.002h.005v-73.641h-.005a25.216 25.216 0 01-5.316-.579 25.125 25.125 0 01-5.558-1.921 23.888 23.888 0 01-2.333-1.286l-.356-.226a24.756 24.756 0 01-4.211-3.433l-45.013 25.988c14.332 1.8 25.454 13.917 25.693 28.68l.004.486a29.27 29.27 0 01-6.027 17.836l25.927 14.969zm-91.326-16.473h42.029c9.019 0 16.331-7.312 16.331-16.332s-7.312-16.332-16.332-16.332h-8.998l-.483-6.009c-1.234-15.348-14.097-27.274-29.597-27.274-12.382 0-23.331 7.648-27.715 19.007l-1.613 4.18h-6.634c-11.808 0-21.38 9.572-21.38 21.38s9.572 21.38 21.38 21.38h31.933c.145 0 .287-.002.426-.005l.14-.002.326.006.187.001zm-20.068 83.842l.071-.123a23.593 23.593 0 01.417-.686l.09-.142.112-.173a25.004 25.004 0 012.453-3.176l.086-.094.175-.188.092-.098c.06-.063.12-.127.181-.189a25.279 25.279 0 012.476-2.24l.109-.085.194-.15.175-.133.116-.087c.172-.127.345-.252.519-.375l.143-.1c.168-.116.337-.23.508-.343l.223-.145c.211-.136.425-.268.64-.398l.144-.086c.178-.105.357-.208.537-.308l.148-.082.184-.1c.194-.104.389-.206.586-.306l.093-.047a47.935 47.935 0 01.39-.19 22.951 22.951 0 011.106-.496 24.265 24.265 0 011.382-.531l.102-.036c.209-.072.42-.142.632-.209l.146-.045.206-.063.187-.055.224-.064.103-.029.196-.053.095-.024v-59.127l-28.185-.001a34.298 34.298 0 01-15.936-3.9l-32.453 18.737a26.262 26.262 0 01.492 2.144l.04.224a24.72 24.72 0 01.329 2.882l.009.171a27.662 27.662 0 01.027.911l.002.158-.002-.158a23.573 23.573 0 01-.03 1.562l-.01.179-.011.18a24.655 24.655 0 01-.231 2.124l.035-.24a24.611 24.611 0 01-.679 3.233 6.217 6.217 0 01-.041.146l-.03.105.03-.105a25.89 25.89 0 01-.25.821l-.038.114a18.012 18.012 0 01-.119.353 24.25 24.25 0 01-1.215 2.909l-.08.162-.105.205-.067.129-.115.219c-.123.23-.251.459-.382.687l-.002.004 63.776 36.821zm43.209 0l63.776-36.821a22.309 22.309 0 01-.5-.91l-.066-.129a16.96 16.96 0 01-.292-.586l-.086-.18-.035-.073.035.073a22.079 22.079 0 01-.416-.93l-.01-.023a25.47 25.47 0 01-.597-1.557l-.036-.105a18.012 18.012 0 01-.083-.248l-.037-.114-.074-.233a28.523 28.523 0 01-.218-.733 26.643 26.643 0 01-.366-1.48l-.035-.166a24.634 24.634 0 01-.217-1.185l-.01-.061a24.935 24.935 0 01-.299-3.806v-.183l.001-.158-.001.158c0-.121.002-.242.004-.364l.008-.292.007-.185.009-.228.008-.148c.012-.214.026-.429.043-.643l.021-.237c.049-.549.117-1.098.203-1.646l.02-.122c.04-.246.084-.493.132-.739l.026-.132.059-.286.029-.134a15.818 15.818 0 01.102-.447 24.499 24.499 0 01.257-.99l.044-.154-30.048-17.348a29.284 29.284 0 01-12.47 2.768l-33.791.001v59.217a22.235 22.235 0 01.741.219l.132.042.239.077.137.046a22.291 22.291 0 01.755.267l.213.08a26.25 26.25 0 011.857.8l.152.073c.31.152.617.31.92.473l.233.128.105.059c.066.036.13.073.195.11l.199.115.139.083.237.142.072.044.278.173.097.062.176.113.175.115.161.107.162.111.223.154a22.414 22.414 0 011.067.791l.151.119c.368.293.728.596 1.079.909l.126.113.233.214.079.073.101.095.201.192.101.099.123.121.077.076.065.066c.147.148.293.299.437.451l.031.033c.117.125.233.251.348.378a26.034 26.034 0 011.437 1.743l.097.13.154.21.082.114.156.22.076.109.136.199.1.148c.249.373.488.753.717 1.139l.131.224zM31.465 220.96c4.486-2.59 6.644-7.666 5.737-12.484l-.02-.105.02.105a11.863 11.863 0 00-1.01-3.029l-.056-.113.056.113a9.883 9.883 0 00-.127-.252l.071.139a10.651 10.651 0 00-.166-.317l-.158-.282a12.07 12.07 0 00-.597-.933l.082.118c-.059-.086-.119-.17-.18-.254l.098.136a8.62 8.62 0 00-.194-.266l.096.13c-.07-.097-.142-.192-.215-.287l.119.157a9.575 9.575 0 00-.173-.225l.054.068a13.257 13.257 0 00-.209-.261l.155.193a9.782 9.782 0 00-.2-.247l.045.054a12.46 12.46 0 00-.384-.444c-3.676-4.045-9.795-5.132-14.722-2.287-5.681 3.28-7.627 10.544-4.347 16.225 3.279 5.681 10.544 7.628 16.225 4.348zm218.318-4.348c3.28-5.681 1.334-12.945-4.347-16.225-4.503-2.599-10.001-1.916-13.72 1.308a11.16 11.16 0 00-.23.204l-.223.209c-.123.119-.243.24-.362.364l-.085.091.085-.091a11.59 11.59 0 00-.186.2l.101-.109a8.665 8.665 0 00-.203.223l.102-.114c-.071.079-.142.158-.211.239l.109-.125c-.07.08-.14.161-.209.243l.1-.118c-.069.08-.137.161-.204.243l.104-.125c-.213.253-.416.517-.609.791l-.067.095.067-.095a12.062 12.062 0 00-.802 1.308l.058-.109a13.91 13.91 0 00-.167.32l.109-.211c-.053.101-.105.202-.155.304l.046-.093a9.52 9.52 0 00-.131.269l.085-.176c-.053.107-.104.214-.153.321l.068-.145a11.143 11.143 0 00-.328.761l.038-.096c-.173.433-.32.872-.44 1.317l-.043.164.043-.164c-.027.101-.053.202-.077.303l.034-.139c-.025.098-.048.196-.07.294l.036-.155c-.028.114-.054.229-.078.344l.042-.189c-.024.105-.047.21-.067.316l.025-.127c-.019.092-.038.184-.055.277l.03-.15c-.962 4.851 1.193 9.985 5.715 12.596 5.681 3.28 12.945 1.333 16.225-4.348zm-117.272 67.707c6.56 0 11.878-5.318 11.878-11.877 0-5.022-3.117-9.316-7.521-11.054l-.098-.038.098.038a12.243 12.243 0 00-.245-.093l.147.055a9.083 9.083 0 00-.29-.107l.143.052a9.102 9.102 0 00-.277-.098l.134.046a10.104 10.104 0 00-.293-.1l.159.054a11.206 11.206 0 00-.31-.101l.151.047a10.89 10.89 0 00-.307-.095l.156.048c-.09-.028-.181-.055-.271-.081l.115.033a10.972 10.972 0 00-.297-.083l.182.05a9.712 9.712 0 00-.324-.087l.142.037a12.142 12.142 0 00-.888-.201l.156.03a12.85 12.85 0 00-.283-.052l.127.022a11.38 11.38 0 00-.322-.055l.195.033a9.737 9.737 0 00-.342-.055l.147.022a17.758 17.758 0 00-.227-.034l.08.012a14.357 14.357 0 00-.355-.046l.275.034a16.815 16.815 0 00-.314-.039l.039.005c-.1-.011-.2-.022-.3-.03l.261.025a12.77 12.77 0 00-.342-.032l.081.007a9.37 9.37 0 00-.337-.025l.256.018a8.77 8.77 0 00-.326-.022l.07.004a8.456 8.456 0 00-.318-.015l.248.011a11.78 11.78 0 00-.653-.018l-.323.004-.081.003.081-.003c-.11.003-.22.008-.329.014l.248-.011a8.41 8.41 0 00-.319.015l.071-.004a11.7 11.7 0 00-.327.022l.256-.018a9.487 9.487 0 00-.336.025l.08-.007c-.114.009-.228.02-.341.033l.261-.026c-.1.008-.2.019-.3.03l.039-.004a11.11 11.11 0 00-.319.039l.28-.035c-.116.013-.231.028-.346.044l.066-.009-.233.035.167-.026c-.118.017-.236.036-.353.057l.186-.031-.282.048.096-.017c-.097.016-.193.035-.289.054l.193-.037c-.264.048-.526.105-.785.171l-.114.03.114-.03c-.106.027-.212.056-.317.086l.203-.056a9.77 9.77 0 00-.293.082l.09-.026c-.095.027-.189.055-.283.084l.193-.058c-.108.031-.215.065-.322.099l.129-.041c-.099.031-.197.063-.295.096l.166-.055a15.2 15.2 0 00-.301.102l.135-.047a9.102 9.102 0 00-.277.098l.142-.051a9.342 9.342 0 00-.294.109l.152-.058a9.558 9.558 0 00-.236.09l.084-.032c-4.454 1.713-7.614 6.032-7.614 11.09 0 6.559 5.317 11.877 11.877 11.877z"/>
  <path fill="#091c45" d="M729.776 63.98c50.752 0 87.171 37.776 87.171 84.47v.469c0 46.694-36.889 84.939-87.64 84.939-50.752 0-87.171-37.776-87.171-84.469v-.47c0-46.693 36.889-84.939 87.64-84.939zm-321.749.548c23.911 0 44.307 7.501 60.952 20.863l-18.755 27.193c-14.535-10.08-28.835-16.175-42.666-16.175-13.832 0-21.099 6.329-21.099 14.299v.469c0 10.784 7.032 14.3 35.399 21.567 33.289 8.674 52.044 20.629 52.044 49.228v.469c0 32.585-24.85 50.869-60.249 50.869-24.85 0-49.934-8.673-69.626-26.255l21.333-25.552c14.769 12.191 30.242 19.927 48.996 19.927 14.769 0 23.678-5.861 23.678-15.472v-.469c0-9.142-5.627-13.831-33.055-20.864-33.055-8.439-54.388-17.581-54.388-50.166v-.469c0-29.771 23.912-49.462 57.436-49.462zm711.413 2.192v107.462c0 39.888-23.44 59.128-58.12 59.128-25.55 0-42.42-11.262-53.67-24.636l22.73-25.341c9.38 10.324 18.52 16.425 30 16.425 13.59 0 22.03-8.212 22.03-27.218v-69.105l-53.94.001V66.72h90.97zm-492.1 0v33.349h-49.909v131.05h-36.084v-131.05h-49.91V66.72H627.34zm295.366 0c38.708 0 61.933 20.432 61.933 54.251v.47c0 26.539-14.31 43.214-35.189 50.963l40.115 58.715h-42.227l-35.189-52.608h-28.386v52.608h-36.128V66.72h75.071zM729.307 97.407c-29.145 0-49.359 22.947-49.359 51.044v.468c0 28.097 20.683 51.512 49.828 51.512 29.146 0 49.359-22.947 49.359-51.044v-.468c0-28.097-20.683-51.512-49.828-51.512zm190.297 2.192h-35.801v47.128h36.503c17.55 0 27.612-9.379 27.612-23.212v-.468c0-15.476-10.764-23.448-28.314-23.448z"/>
  <path fill="#606470" fill-rule="nonzero" d="M1288.718 229.975V65.852h55.31c10.61 0 19.64 1.806 26.639 5.644 7.224 3.612 12.642 8.804 16.254 15.125 3.386 6.547 5.192 13.997 5.192 22.124 0 6.773-1.128 12.642-3.386 17.609-2.257 4.74-5.418 8.804-9.256 11.74-4.063 2.934-8.353 5.191-13.32 6.546v1.129c5.193.451 10.385 2.257 15.352 5.644 4.967 3.386 9.03 8.127 12.417 13.996 3.16 6.096 4.74 13.094 4.74 21.447s-1.806 15.803-5.644 22.124c-3.612 6.547-9.255 11.74-16.931 15.351-7.676 3.838-17.157 5.644-29.122 5.644h-58.245zm14.9-13.545h43.345c12.868 0 22.124-2.71 28.219-8.353 6.095-5.644 9.03-12.642 9.03-21.221 0-6.095-1.354-11.965-4.515-16.932-2.935-5.192-7.224-9.255-12.642-12.19-5.644-2.935-11.965-4.515-19.415-4.515h-44.022v63.21zm0-76.53h41.764c6.547 0 12.191-1.355 16.932-4.064 4.967-2.484 8.804-6.322 11.513-11.062 2.71-4.515 4.064-9.934 4.064-16.029 0-8.804-2.935-15.803-8.579-21.22-5.644-5.419-13.996-8.354-25.284-8.354h-40.41V139.9zM1570.128 147.8c0 17.158-3.161 32.058-9.256 44.7-6.096 12.642-14.449 22.35-25.06 29.348-10.61 6.998-22.8 10.385-36.797 10.385-13.771 0-25.962-3.387-36.798-10.385-10.61-6.999-18.963-16.706-25.059-29.348-6.095-12.642-9.03-27.542-9.03-44.7 0-16.931 2.935-31.83 9.03-44.473 6.096-12.642 14.449-22.575 25.285-29.348 10.61-6.998 22.801-10.385 36.572-10.385 13.997 0 26.187 3.387 36.798 10.385 10.61 6.773 18.963 16.706 25.059 29.348 6.095 12.642 9.256 27.542 9.256 44.474zm-14.674 0c0-14.673-2.484-27.316-7.225-37.7-4.966-10.61-11.739-18.512-20.317-24.156-8.353-5.418-18.06-8.353-28.897-8.353-10.61 0-20.318 2.935-28.897 8.353-8.352 5.644-15.125 13.545-20.092 24.156-4.966 10.384-7.45 23.027-7.45 37.7 0 14.675 2.484 27.317 7.45 37.927 4.967 10.385 11.514 18.512 20.092 23.93 8.58 5.644 18.06 8.353 28.897 8.353 10.836 0 20.544-2.709 29.122-8.127 8.353-5.644 15.126-13.771 20.092-24.156 4.967-10.61 7.225-23.252 7.225-37.926zM1607.381 65.852l45.377 71.112h1.129l45.376-71.112h17.835L1664.27 147.8l52.827 82.174h-17.835l-45.376-70.435h-1.129l-45.377 70.435h-17.834l53.73-82.174-53.73-81.95h17.834zM1813.338 229.975V65.852h14.9V216.43h78.337v13.545h-93.237zM1940.318 65.852h14.9v164.123h-14.9zM1990.035 79.171v-13.32h118.972v13.32h-52.149v150.804h-14.9V79.171h-51.923zM2144.908 229.975V65.852h95.043v13.32h-80.143v61.856h75.176v13.545h-75.176v61.857h81.949v13.545h-96.849z"/>
</svg>
